<?xml version="1.0" encoding="UTF-8" ?>
<!DOCTYPE svg PUBLIC "-//W3C//DTD SVG 1.1//EN" "http://www.w3.org/Graphics/SVG/1.1/DTD/svg11.dtd">
<svg width="889pt" height="889pt" viewBox="0 0 889 889" version="1.1" xmlns="http://www.w3.org/2000/svg">
<g id="#fec60dff">
<path fill="#fec60d" opacity="1.00" d=" M 223.84 92.10 C 234.23 63.47 244.75 34.87 255.07 6.21 C 271.95 8.17 288.83 10.16 305.69 12.33 C 304.73 17.44 302.64 22.22 300.92 27.10 C 297.32 37.05 293.64 46.97 290.09 56.94 C 358.39 29.41 434.04 20.33 506.88 31.33 C 586.61 43.03 662.54 78.75 722.63 132.42 C 775.80 179.47 816.63 240.38 839.55 307.60 C 866.11 385.04 869.58 470.33 848.71 549.54 C 833.45 607.73 805.31 662.55 766.75 708.74 C 760.99 714.79 752.02 717.55 743.86 715.81 C 735.09 714.14 727.52 707.39 724.91 698.84 C 722.18 690.70 724.19 681.32 729.78 674.84 C 771.11 624.29 798.43 562.45 807.87 497.84 C 820.07 416.58 804.06 331.37 762.87 260.23 C 725.39 194.93 667.03 141.99 598.65 110.56 C 559.46 92.49 517.04 81.42 474.01 78.11 C 417.33 73.60 359.71 82.74 307.07 104.20 C 323.28 110.44 339.89 115.70 355.91 122.40 C 346.62 136.70 337.42 151.05 328.12 165.34 C 297.24 154.02 266.29 142.85 235.41 131.53 C 226.25 128.03 219.76 118.73 219.59 108.93 C 219.28 103.00 221.92 97.55 223.84 92.10 Z" />
<path fill="#fec60d" opacity="1.00" d=" M 121.13 182.16 C 127.12 175.80 136.60 173.05 145.07 175.17 C 154.48 177.34 162.20 185.40 163.85 194.93 C 165.44 202.61 162.89 210.79 157.71 216.59 C 105.98 279.96 76.76 361.18 76.21 442.97 C 75.12 523.82 101.63 604.82 150.76 669.09 C 196.23 728.99 260.57 774.31 332.33 796.83 C 409.94 821.56 495.81 819.13 571.91 790.08 C 574.91 788.94 577.89 787.75 580.90 786.63 C 564.74 780.30 548.13 775.08 532.09 768.43 C 541.33 754.10 550.60 739.78 559.86 725.46 C 590.86 736.78 621.90 747.99 652.87 759.37 C 664.69 763.92 671.42 778.25 667.21 790.25 C 655.85 821.73 644.29 853.14 632.90 884.61 C 616.05 882.60 599.21 880.59 582.37 878.51 C 583.17 873.52 585.26 868.90 586.92 864.17 C 590.57 854.04 594.34 843.95 597.93 833.80 C 530.21 861.23 455.20 870.23 382.90 859.71 C 304.93 848.61 230.49 814.58 170.86 763.16 C 115.96 716.24 73.57 654.77 49.65 586.60 C 31.44 534.94 23.53 479.69 26.33 425.00 C 30.59 336.63 64.46 250.07 121.13 182.16 Z" />
</g>
<g id="#000000ff">
<path fill="#000000" opacity="1.00" d=" M 408.94 175.89 C 430.62 175.91 452.31 175.93 473.99 175.67 C 474.01 188.38 474.14 201.08 474.27 213.78 C 514.08 213.83 553.89 213.77 593.71 213.81 C 593.71 245.20 593.70 276.59 593.71 307.98 C 534.44 308.06 475.17 307.96 415.91 307.82 C 459.03 350.97 502.50 393.79 545.50 437.06 C 498.36 484.38 450.61 531.09 403.38 578.31 C 419.90 578.82 436.44 578.38 452.97 578.53 C 501.57 578.29 550.16 578.45 598.76 578.40 C 598.76 610.19 598.87 641.98 598.97 673.77 C 557.21 673.79 515.46 673.75 473.71 673.79 C 473.62 684.99 473.80 696.19 473.62 707.39 C 452.62 707.31 431.62 707.39 410.62 707.35 C 410.56 696.15 410.71 684.95 410.54 673.76 C 369.13 673.79 327.71 673.78 286.29 673.77 C 286.27 635.22 286.28 596.67 286.39 558.12 C 286.37 557.11 286.77 556.29 287.60 555.68 C 328.65 515.36 369.79 475.13 410.83 434.80 C 412.01 434.08 412.04 432.91 410.85 432.19 C 370.32 391.66 329.68 351.24 289.37 310.49 C 289.48 278.19 289.31 245.89 289.58 213.58 C 329.35 213.57 369.13 213.87 408.90 213.78 C 408.97 201.15 408.90 188.52 408.94 175.89 Z" />
</g>
</svg>
